inDegrees=yes
name=ik_S40_A10_T01
DataType=double
version=3
OpenSimVersion=4.3-2021-08-27-4bc7ad9
endheader
time	pelvis_tilt	pelvis_list	pelvis_rotation	pelvis_tx	pelvis_ty	pelvis_tz	hip_flexion_r	hip_adduction_r	hip_rotation_r	knee_angle_r	knee_angle_r_beta	ankle_angle_r	subtalar_angle_r	mtp_angle_r	hip_flexion_l	hip_adduction_l	hip_rotation_l	knee_angle_l	knee_angle_l_beta	ankle_angle_l	subtalar_angle_l	mtp_angle_l	lumbar_extension	lumbar_bending	lumbar_rotation	arm_flex_r	arm_add_r	arm_rot_r	elbow_flex_r	pro_sup_r	wrist_flex_r	wrist_dev_r	arm_flex_l	arm_add_l	arm_rot_l	elbow_flex_l	pro_sup_l	wrist_flex_l	wrist_dev_l
5.05999999999998	-1.874722398418587	-1.803349197882851	36.11547579039095	0	0.9399999999999999	0	39.22449319302167	-9.915745902147682	-9.712485161684228	46.23423105061944	0.8069395589611064	0	0	0	39.22449319302167	-9.915745902147682	-9.712485161684228	46.23423105061944	0.8069395589611064	0	0	0	-2.081369648128809	-0.3610833890080231	8.921427001226995	48.95645821168491	-4.77543359352897	10.93318671226197	49.11334373689351	60.87122667077373	0	0	55.87852894486474	11.15417365047877	4.281883081443053	34.64059437763853	83.53564895639477	0	0
5.07999999999998	-2.040230575011161	-1.956779447109037	36.13511099008645	0	0.9399999999999999	0	39.30092166898521	-9.918335264950684	-9.719094090877656	46.33776956869508	0.8087466470041619	0	0	0	39.30092166898521	-9.918335264950684	-9.719094090877656	46.33776956869508	0.8087466470041619	0	0	0	-2.311937497470056	-0.37764752734117	8.801259495302673	45.61542468337471	-4.63847360911259	11.39318506649827	50.38230668245991	60.16177334336299	0	0	53.02803437584905	10.64657775435468	4.925342491928567	34.96370630860118	85.78419286442598	0	0
5.099999999999979	-2.219915052741319	-2.141925604784244	36.13437677086549	0	0.9399999999999999	0	39.3661228939697	-9.920518308913497	-9.724694282626244	46.42610394861129	0.8102883727764073	0	0	0	39.3661228939697	-9.920518308913497	-9.724694282626244	46.42610394861129	0.8102883727764073	0	0	0	-2.565217898407396	-0.4272772882572287	8.71136031351525	42.51181294374435	-3.546805890800516	10.95126023446772	48.95335682631931	60.19258493906462	0	0	50.35219904918512	10.37029059166983	5.225259735591226	35.76740255373026	86.28468343428598	0	0
5.119999999999979	-2.326411646211225	-2.254613157890752	36.16226535692223	0	0.9399999999999999	0	39.40448085242752	-9.921787791725283	-9.727970306784599	46.47784217828879	0.8111913752334328	0	0	0	39.40448085242752	-9.921787791725283	-9.727970306784599	46.47784217828879	0.8111913752334328	0	0	0	-2.726202340373848	-0.4379844313655933	8.646337493170353	42.68761359770343	-3.23014712330016	11.13927974535252	45.12215699913546	59.12771115527269	0	0	47.72221851724939	10.4736428973771	4.930440096828589	33.93165046326553	84.28420763384709	0	0
5.139999999999978	-2.595016185197484	-2.490768848825365	36.10396310766095	0	0.9399999999999999	0	39.4577967227262	-9.923535684208391	-9.732497779025767	46.55000766649232	0.8124509006088935	0	0	0	39.4577967227262	-9.923535684208391	-9.732497779025767	46.55000766649232	0.8124509006088935	0	0	0	-3.084882533371684	-0.4782715227175254	8.585138618785676	40.53804350244143	-2.223161550213354	9.846973886202365	43.32364765431493	61.36537964147941	0	0	45.84526180090577	10.3977640444051	4.619353548349848	32.16324329399929	81.96876311873109	0	0
5.159999999999978	-2.878556402839398	-2.717825731511993	36.00297663887787	0	0.9399999999999999	0	39.5023855585798	-9.924985858688913	-9.736268744090681	46.61020016691198	0.8135014579262246	0	0	0	39.5023855585798	-9.924985858688913	-9.736268744090681	46.61020016691198	0.8135014579262246	0	0	0	-3.450792015105055	-0.4884843395275398	8.52163417563542	39.25571934289095	-1.682530495455494	8.685575934086742	41.06007873169525	63.37055200600271	0	0	43.92835309736364	9.897120735848253	4.405161207345476	30.84562111336453	82.45505972201472	0	0
5.179999999999978	-3.284399418721742	-3.048530655902183	35.77848286962726	0	0.9399999999999999	0	39.55571849922205	-9.926684712677487	-9.740725874650851	46.6826863646402	0.8147665807388336	0	0	0	39.55571849922205	-9.926684712677487	-9.740725874650851	46.6826863646402	0.8147665807388336	0	0	0	-3.974011408578742	-0.5187705578467086	8.431236386705278	37.55506555461745	-1.006835215939941	7.097884320565617	41.17343558147645	65.76655560693554	0	0	42.56393142521618	9.673151889237348	3.624623999658091	29.28195105090167	84.54983712050364	0	0
5.199999999999977	-3.555031812138016	-3.282603289438528	35.72301460549589	0	0.9399999999999999	0	39.58539229998306	-9.927667400672844	-9.743260517819447	46.72223314594534	0.8154568022811745	0	0	0	39.58539229998306	-9.927667400672844	-9.743260517819447	46.72223314594534	0.8154568022811745	0	0	0	-4.339255216517471	-0.538872070166964	8.308720564275783	36.8673361238267	0.2225078110059888	6.858381761983886	34.8408116166818	67.4383713715859	0	0	41.08715339429385	9.978646249634751	2.584628783062796	29.2567083649504	86.09110294275368	0	0
5.219999999999977	-3.796316076907492	-3.499815053360748	35.61880266521094	0	0.9399999999999999	0	39.59292590212432	-9.927966318198832	-9.743976832522307	46.73139263889417	0.8156166655909448	0	0	0	39.59292590212432	-9.927966318198832	-9.743976832522307	46.73139263889417	0.8156166655909448	0	0	0	-4.674998160011657	-0.5450716247751458	8.198816858838761	36.13555316640265	1.144801069717163	6.948377512834265	32.57334608742816	68.69369858187403	0	0	39.8473264033366	10.27612418782292	1.551428202370863	27.14762162775208	86.55141167745253	0	0
5.239999999999976	-4.032262547968987	-3.707548305563177	35.5343682321767	0	0.9399999999999999	0	39.60643257383218	-9.928432937118727	-9.745160429589873	46.74889537106296	0.8159221458953849	0	0	0	39.60643257383218	-9.928432937118727	-9.745160429589873	46.74889537106296	0.8159221458953849	0	0	0	-5.002570395059935	-0.5453168619992541	8.048939706484225	35.61090123672687	1.631771623292252	7.316530064895349	30.26917457250322	69.78792797857741	0	0	38.85583437284784	10.32684213603162	0.4826330998167017	25.08912769651891	86.40037985573372	0	0
5.259999999999976	-4.257911053122831	-3.896055756282567	35.42991429249983	0	0.9399999999999999	0	39.60619391889807	-9.928450716692504	-9.745182428013226	46.74773115514933	0.8159018264944879	0	0	0	39.60619391889807	-9.928450716692504	-9.745182428013226	46.74773115514933	0.8159018264944879	0	0	0	-5.300658710450254	-0.5581474425074801	7.970616499296283	36.16567889631085	1.756761707406677	7.448933586975022	28.61205655497567	70.45129700732763	0	0	38.08868153351826	10.24831733991518	-0.605413892161736	19.72757553503633	86.27999624856817	0	0
5.279999999999975	-4.502107717816155	-4.119038279850876	35.36038352992635	0	0.9399999999999999	0	39.60377894538956	-9.928443663464428	-9.745085369307503	46.74309641276452	0.8158209349798913	0	0	0	39.60377894538956	-9.928443663464428	-9.745085369307503	46.74309641276452	0.8158209349798913	0	0	0	-5.637152817055425	-0.5826784723209518	7.953431300337846	35.88489953008355	2.048789171830796	8.016960893956027	26.30884494999952	71.47954851421161	0	0	37.56406217936588	10.16517548079959	-1.206032767522442	17.56070207418482	86.94788649343815	0	0
5.299999999999975	-4.719040468955455	-4.311267158670881	35.4511858801071	0	0.9399999999999999	0	39.62643032670567	-9.929184867687189	-9.747009285120058	46.773194444402	0.8163462447303348	0	0	0	39.62643032670567	-9.929184867687189	-9.747009285120058	46.773194444402	0.8163462447303348	0	0	0	-5.934962011614468	-0.5946846753879395	7.825338224245768	34.73643499908323	2.603551136485788	9.532031630155055	24.80924572545273	71.86343645829706	0	0	36.78323270506458	10.21501266334871	-1.173931931785204	17.30574988731556	87.10514640518566	0	0
5.319999999999975	-4.825599503527795	-4.403789732363744	35.41019785392606	0	0.9399999999999999	0	39.62967831834958	-9.929333587955078	-9.747350162185494	46.77655903835674	0.8164049679728377	0	0	0	39.62967831834958	-9.929333587955078	-9.747350162185494	46.77655903835674	0.8164049679728377	0	0	0	-6.072986780314282	-0.6110699729884966	7.847260663286835	34.99478079473179	2.654357215667566	9.483347258460432	21.94844308246833	73.55043146891909	0	0	35.69380282399413	10.21667831366372	-0.8809209460805045	15.59915407291038	87.22858334319848	0	0
5.339999999999974	-5.267443593457404	-4.764694457114055	35.42104667272248	0	0.9399999999999999	0	39.62967894249928	-9.929375080709892	-9.747413510200513	46.77566126103811	0.8163892988026777	0	0	0	39.62967894249928	-9.929375080709892	-9.747413510200513	46.77566126103811	0.8163892988026777	0	0	0	-6.641468417762801	-0.6513379239372727	7.882793002258425	35.20553162537342	2.821479035835205	10.24020903925297	20.10983784348884	74.46750920041082	0	0	35.51697899968896	10.21544817816938	-0.6145196464673598	14.01190675013216	87.79206568799353	0	0
5.359999999999974	-5.482044032819807	-4.948689559284478	35.42716556624615	0	0.9399999999999999	0	39.63119049118902	-9.929467545851812	-9.747607328270853	46.77675600090703	0.8164084056178433	0	0	0	39.63119049118902	-9.929467545851812	-9.747607328270853	46.77675600090703	0.8164084056178433	0	0	0	-6.922040337293898	-0.6783437189226563	7.901675397678607	34.8908906442387	3.131571112718667	10.8836001192021	19.43032578638356	74.79729012399861	0	0	34.8459295984892	10.10189656573234	-0.4828311612309704	12.75812217643178	88.55326469444003	0	0
5.379999999999973	-5.585407895139586	-5.030120702888671	35.40678334254455	0	0.9399999999999999	0	39.63014087582254	-9.929494000513682	-9.747609751138006	46.77415749333857	0.8163630531051357	0	0	0	39.63014087582254	-9.929494000513682	-9.747609751138006	46.77415749333857	0.8163630531051357	0	0	0	-7.053519958548769	-0.6813175323695033	7.924964554451676	34.01654447479274	3.761607358381266	11.69976033188987	17.57878269422609	75.39945501451798	0	0	33.93783968362796	10.01142577328902	-0.4199002528760412	11.79186699650608	88.84038209257356	0	0
5.399999999999973	-5.758251502770431	-5.189342098554819	35.31041069460102	0	0.9399999999999999	0	39.60763675001795	-9.928902842462168	-9.745914926802532	46.74157344246952	0.8157943541338335	0	0	0	39.60763675001795	-9.928902842462168	-9.745914926802532	46.74157344246952	0.8157943541338335	0	0	0	-7.287505363865898	-0.7040147903104959	8.003496438834041	33.76474060080164	4.130726408760185	12.03666096683467	13.86871253692276	76.40826229562393	0	0	33.3337881560505	9.949877445468351	-0.5329720443725561	11.01130742600373	88.51163850160499	0	0
5.419999999999972	-5.901941093368959	-5.330188670381108	35.37811727936404	0	0.9399999999999999	0	39.60937306511345	-9.928982313222157	-9.746097179044728	46.74337506110398	0.8158257983108701	0	0	0	39.60937306511345	-9.928982313222157	-9.746097179044728	46.74337506110398	0.8158257983108701	0	0	0	-7.490165428832493	-0.725364874477382	7.949956740032635	33.2427750921454	4.535720691113833	12.3237770981822	12.99907617815607	75.90910729349646	0	0	33.70307612940534	10.00235849171852	-0.4963631508482366	10.24949425834573	88.06228429525903	0	0
5.439999999999972	-6.070407113838792	-5.485040408487445	35.36264317195135	0	0.9399999999999999	0	39.59911530990436	-9.928724607357628	-9.745341712800144	46.72830965921669	0.8155628574448007	0	0	0	39.59911530990436	-9.928724607357628	-9.745341712800144	46.72830965921669	0.8155628574448007	0	0	0	-7.713938017433561	-0.7540854963415111	8.033473130677031	32.86580473578786	4.832868546087328	12.36356596578501	12.21353234342945	75.57771465820966	0	0	33.23765540404246	10.07375513346539	-0.6666082820813399	8.252403663074015	85.75873620089708	0	0
5.459999999999972	-6.23031646633137	-5.624683352466106	35.48519327928226	0	0.9399999999999999	0	39.62747277728485	-9.929598264795061	-9.747671092632737	46.76698525743718	0.8162378739739267	0	0	0	39.62747277728485	-9.929598264795061	-9.747671092632737	46.76698525743718	0.8162378739739267	0	0	0	-7.928655660959978	-0.7709595538853919	7.979583985702649	32.73559833644717	4.932209385194498	12.08753753709203	12.114853437194	75.80143012715365	0	0	32.09363825691057	10.05962651050301	-1.420259829361392	8.566393065852445	85.59955329732736	0	0
5.479999999999971	-6.304053078831839	-5.697150634597686	35.55839281453009	0	0.9399999999999999	0	39.62979002172621	-9.929703852248998	-9.747913805549189	46.7693872314111	0.8162797963283188	0	0	0	39.62979002172621	-9.929703852248998	-9.747913805549189	46.7693872314111	0.8162797963283188	0	0	0	-8.034154980602612	-0.778597826128545	7.935320135411102	32.93025543713636	4.990523837074349	12.03156826546755	11.07113188043325	75.54744899759984	0	0	31.53998499278785	10.15199357841517	-1.903760041298148	8.434820473980228	85.62876791917608	0	0
